<svg width="128" height="128" viewBox="0 0 128 128" xmlns="http://www.w3.org/2000/svg">
  <path
    d="M64 16C37.49 16 16 37.49 16 64C16 90.51 37.49 112 64 112C90.51 112 112 90.51 112 64C112 37.49 90.51 16 64 16ZM43 50C49.08 43.92 56.89 40.88 64.69 40.88C72.49 40.88 80.29 43.92 86.25 49.88L90 53.63L80.88 53.63L80.88 61.63L104 61.63L104 38.5L96 38.5L96 47.94L91.88 43.81C76.74 28.67 52.27 28.67 37.13 43.81L43 50ZM24 66.37L24 89.5L32 89.5L32 80.06L36.12 84.19C43.69 91.76 53.84 95.55 64 95.55C74.16 95.55 84.31 91.76 91.88 84.19L86 78.31C73.84 90.47 54.16 90.47 42 78.31L38.25 74.56L47.37 74.56L47.37 66.56L24 66.37Z"
    fill="currentColor"
  />
</svg>
